<svg width="17" height="16" viewBox="0 0 17 16" fill="none" xmlns="http://www.w3.org/2000/svg">
<path d="M2.70098 2.22098C2.58383 2.36125 2.51965 2.53821 2.51965 2.72098C2.51965 2.90374 2.58383 3.0807 2.70098 3.22098L7.01098 8.02098L2.69098 12.801C2.56799 12.9385 2.5 13.1165 2.5 13.301C2.5 13.4855 2.56799 13.6635 2.69098 13.801C2.74452 13.8627 2.8105 13.9125 2.88461 13.9469C2.95871 13.9814 3.03926 13.9998 3.12098 14.001C3.20135 14.0004 3.28061 13.9821 3.35317 13.9476C3.42573 13.913 3.48984 13.863 3.54098 13.801L8.30098 8.50098C8.42196 8.3625 8.48862 8.18485 8.48862 8.00098C8.48862 7.8171 8.42196 7.63946 8.30098 7.50098L3.55098 2.20098C3.49843 2.13798 3.43267 2.0873 3.35837 2.05253C3.28406 2.01775 3.20302 1.99972 3.12098 1.99972C3.03894 1.99972 2.9579 2.01775 2.8836 2.05253C2.8093 2.0873 2.74354 2.13798 2.69098 2.20098L2.70098 2.22098Z" fill="black"/>
<path d="M8.70098 2.22098C8.58383 2.36125 8.51965 2.53821 8.51965 2.72098C8.51965 2.90374 8.58383 3.0807 8.70098 3.22098L13.011 8.02098L8.69098 12.801C8.56799 12.9385 8.5 13.1165 8.5 13.301C8.5 13.4855 8.56799 13.6635 8.69098 13.801C8.74452 13.8627 8.8105 13.9125 8.88461 13.9469C8.95871 13.9814 9.03926 13.9998 9.12098 14.001C9.20135 14.0004 9.28061 13.9821 9.35317 13.9476C9.42573 13.913 9.48984 13.863 9.54098 13.801L14.301 8.50098C14.422 8.3625 14.4886 8.18485 14.4886 8.00098C14.4886 7.8171 14.422 7.63946 14.301 7.50098L9.55098 2.20098C9.49843 2.13798 9.43267 2.0873 9.35837 2.05253C9.28406 2.01775 9.20302 1.99972 9.12098 1.99972C9.03894 1.99972 8.9579 2.01775 8.8836 2.05253C8.8093 2.0873 8.74354 2.13798 8.69098 2.20098L8.70098 2.22098Z" fill="black"/>
</svg>
