<svg width="33" height="29" viewBox="0 0 33 29" fill="none" xmlns="http://www.w3.org/2000/svg">
<path d="M30.375 0.625H2.625C2.01169 0.625 1.42349 0.868638 0.989815 1.30232C0.556138 1.73599 0.3125 2.32419 0.3125 2.9375V26.0625C0.3125 26.6758 0.556138 27.264 0.989815 27.6977C1.42349 28.1314 2.01169 28.375 2.625 28.375H30.375C30.9883 28.375 31.5765 28.1314 32.0102 27.6977C32.4439 27.264 32.6875 26.6758 32.6875 26.0625V2.9375C32.6875 2.32419 32.4439 1.73599 32.0102 1.30232C31.5765 0.868638 30.9883 0.625 30.375 0.625ZM29.2188 4.09375V16.5812L24.7787 13.9913C24.4442 13.8131 24.0709 13.7199 23.6919 13.7199C23.3128 13.7199 22.9396 13.8131 22.605 13.9913L18.6737 15.8875L11.9906 8.95C11.5584 8.52629 10.9772 8.28896 10.3719 8.28896C9.76657 8.28896 9.1854 8.52629 8.75313 8.95L3.78125 13.575V4.325L29.2188 4.09375ZM3.78125 24.9062V17.9688C3.85299 17.9141 3.93055 17.8676 4.0125 17.83L10.2563 12.0487L19.5063 21.7844C19.6435 21.9958 19.8252 22.1748 20.0387 22.3089C20.2522 22.443 20.4924 22.5289 20.7425 22.5607C20.9926 22.5924 21.2466 22.5693 21.4868 22.4929C21.7271 22.4164 21.9478 22.2885 22.1335 22.1181C22.3193 21.9477 22.4657 21.7388 22.5625 21.506C22.6593 21.2732 22.7042 21.0222 22.694 20.7703C22.6839 20.5184 22.6189 20.2717 22.5037 20.0475C22.3885 19.8232 22.2258 19.6268 22.0269 19.4719L21.125 18.4775L23.4375 17.2981L29.08 20.605V24.9062H3.78125ZM23.0675 8.97313C23.0675 9.54484 22.898 10.1037 22.5803 10.5791C22.2627 11.0544 21.8113 11.4249 21.2831 11.6437C20.7549 11.8625 20.1737 11.9197 19.6129 11.8082C19.0522 11.6967 18.5372 11.4214 18.1329 11.0171C17.7286 10.6128 17.4533 10.0978 17.3418 9.53706C17.2303 8.97633 17.2875 8.39512 17.5063 7.86693C17.7251 7.33874 18.0956 6.88728 18.5709 6.56966C19.0463 6.25203 19.6052 6.0825 20.1769 6.0825C20.5573 6.07942 20.9346 6.15208 21.2867 6.29626C21.6388 6.44044 21.9587 6.65324 22.2277 6.92228C22.4968 7.19131 22.7096 7.5112 22.8537 7.8633C22.9979 8.21539 23.0706 8.59266 23.0675 8.97313Z" fill="black"/>
</svg>
