<svg width="24" height="24" viewBox="0 0 24 24"  xmlns="http://www.w3.org/2000/svg">
<path d="M12.0002 7.06504L12.7352 9.45004L13.2152 11.04H17.5952L15.2852 12.81L14.0552 13.755L14.5052 15.255L15.3152 17.895L13.3652 16.395L12.0002 15.345L10.6352 16.395L8.68517 17.895L9.49517 15.255L9.94517 13.755L8.71517 12.81L6.40517 11.04H10.7852L11.2652 9.45004L12.0002 7.06504ZM12.0002 1.50004C11.8126 1.49827 11.6294 1.5572 11.478 1.66803C11.3266 1.77886 11.2151 1.93566 11.1602 2.11504L9.12017 8.79004H2.38517C2.21957 8.8073 2.0622 8.87092 1.93113 8.9736C1.80007 9.07628 1.70063 9.21385 1.64423 9.3705C1.58784 9.52715 1.57678 9.69654 1.61232 9.8592C1.64786 10.0219 1.72857 10.1712 1.84517 10.29L7.33517 14.595L5.26517 21.375C5.22507 21.5058 5.21637 21.6442 5.23977 21.7789C5.26317 21.9137 5.31801 22.041 5.39983 22.1506C5.48166 22.2602 5.58817 22.3489 5.71072 22.4096C5.83327 22.4704 5.96841 22.5013 6.10517 22.5C6.29441 22.4949 6.47757 22.4321 6.63017 22.32L12.0002 18.18L17.3702 22.305C17.5164 22.4304 17.7025 22.4995 17.8952 22.5C18.0326 22.4989 18.1678 22.4657 18.2902 22.4033C18.4125 22.3408 18.5187 22.2507 18.6002 22.1401C18.6817 22.0294 18.7363 21.9014 18.7597 21.766C18.7832 21.6306 18.7748 21.4916 18.7352 21.36L16.6652 14.595L22.1552 10.365C22.2718 10.2462 22.3525 10.0969 22.388 9.9342C22.4236 9.77154 22.4125 9.60216 22.3561 9.4455C22.2997 9.28885 22.2003 9.15128 22.0692 9.0486C21.9381 8.94592 21.7808 8.8823 21.6152 8.86504H14.8802L12.8402 2.11504C12.7852 1.93566 12.6737 1.77886 12.5223 1.66803C12.3709 1.5572 12.1878 1.49827 12.0002 1.50004Z" />
</svg>
