<svg width="22" height="18" viewBox="0 0 22 18"  xmlns="http://www.w3.org/2000/svg">
<path d="M13.61 4.83025L9.95 0.48025C9.80336 0.321847 9.62425 0.19696 9.42492 0.114121C9.22558 0.0312809 9.01072 -0.00756033 8.795 0.000249785H2C1.60218 0.000249785 1.22064 0.158285 0.93934 0.43959C0.658035 0.720894 0.5 1.10243 0.5 1.50025V16.5002C0.5 16.8981 0.658035 17.2796 0.93934 17.5609C1.22064 17.8422 1.60218 18.0002 2 18.0002H20C20.3978 18.0002 20.7794 17.8422 21.0607 17.5609C21.342 17.2796 21.5 16.8981 21.5 16.5002V6.33025C21.5 5.93242 21.342 5.55089 21.0607 5.26959C20.7794 4.98829 20.3978 4.83025 20 4.83025H13.61ZM2.75 2.20525H8.45L10.67 4.83025H2.75V2.20525ZM19.25 15.7053H2.75V7.08025H19.25V15.7053Z" />
</svg>
