<svg width="24" height="24" viewBox="0 0 24 24"  xmlns="http://www.w3.org/2000/svg">
<path d="M22.035 3.21C21.8942 3.09057 21.7255 3.00869 21.5445 2.97198C21.3636 2.93526 21.1763 2.9449 21 3L16.185 4.83L9.13503 3C9.09022 2.99402 9.04483 2.99402 9.00003 3C8.89621 2.9777 8.78884 2.9777 8.68503 3L2.29503 4.92C2.06414 4.99084 1.86218 5.1341 1.71901 5.32859C1.57584 5.52309 1.49906 5.75849 1.50003 6V19.875C1.49884 20.0499 1.53899 20.2225 1.61719 20.3789C1.69539 20.5353 1.80943 20.671 1.95003 20.775C2.13738 20.9241 2.37062 21.0036 2.61003 21C2.70941 21.0157 2.81064 21.0157 2.91003 21L8.91003 19.215L15.975 21H16.23C16.3496 21.0145 16.4705 21.0145 16.59 21L21.75 19.125C21.9787 19.042 22.1749 18.8881 22.3098 18.6857C22.4448 18.4833 22.5114 18.243 22.5 18V4.125C22.4983 3.94696 22.4554 3.77174 22.3747 3.61301C22.2941 3.45429 22.1778 3.31636 22.035 3.21ZM10.035 5.565L15.195 6.885V18.435L10.035 17.115V5.565ZM7.77003 17.16L3.70503 18.375V6.84L7.77003 5.625V17.16ZM20.295 17.16L17.295 18.24V6.795L20.295 5.715V17.16Z" />
</svg>
