<svg width="17" height="16" viewBox="0 0 17 16"  xmlns="http://www.w3.org/2000/svg">
<path d="M15.1412 3.19149L13.3225 1.37192C13.1901 1.24513 13.0331 1.14687 12.8612 1.08325C12.6893 1.01962 12.5062 0.991968 12.3232 1.00201C11.539 1.06562 10.8075 1.4226 10.2746 2.00178L2.46008 9.80993C2.20312 10.0525 2.03137 10.3716 1.97042 10.7197L1.52074 14.1989C1.49524 14.2968 1.49333 14.3994 1.51516 14.4982C1.53699 14.597 1.58194 14.6893 1.64631 14.7673C1.71069 14.8454 1.79265 14.9071 1.88547 14.9473C1.97829 14.9875 2.07933 15.0051 2.18028 14.9987H2.32018L5.79776 14.5588C6.14573 14.4978 6.4647 14.326 6.70712 14.0689L14.5117 6.24077C15.511 5.23101 15.8108 3.86134 15.1412 3.19149ZM5.64786 12.9992L5.56792 13.0592L3.1496 13.3691L3.45939 10.9997L3.51934 10.8697L9.21538 5.17103L11.3439 7.30052L5.64786 12.9992ZM13.5124 5.18102L12.4032 6.24077L10.2746 4.11128L11.3339 3.05153C11.5952 2.76043 11.9475 2.56658 12.3332 2.50166L14.012 4.18126C13.9585 4.55999 13.7831 4.91096 13.5124 5.18102Z" />
</svg>
