<svg width="16" height="16" viewBox="0 0 16 16"  xmlns="http://www.w3.org/2000/svg">
<path d="M14.7852 13.7436L10.7229 9.67202C11.5501 8.57954 11.9317 7.21388 11.7908 5.85093C11.6498 4.48798 10.9966 3.22933 9.96334 2.32925C8.93003 1.42916 7.59357 0.954727 6.22392 1.00179C4.85427 1.04885 3.55353 1.61391 2.58448 2.5828C1.61542 3.55169 1.05027 4.8522 1.00319 6.22161C0.956123 7.59102 1.43064 8.92726 2.33088 9.96039C3.23112 10.9935 4.48999 11.6465 5.85317 11.7875C7.21636 11.9285 8.58225 11.5469 9.67492 10.7198L13.7472 14.7814C13.8144 14.8511 13.8951 14.9065 13.9843 14.9442C14.0735 14.9819 14.1694 15.0012 14.2662 15.001C14.3632 15.0024 14.4595 14.9836 14.5488 14.9458C14.6382 14.908 14.7187 14.8521 14.7852 14.7814C14.854 14.7136 14.9087 14.6329 14.946 14.5438C14.9833 14.4547 15.0025 14.3591 15.0025 14.2625C15.0025 14.1659 14.9833 14.0703 14.946 13.9812C14.9087 13.8921 14.854 13.8114 14.7852 13.7436ZM2.49855 6.41876C2.49855 5.64309 2.7286 4.88483 3.15962 4.23988C3.59063 3.59493 4.20325 3.09226 4.92 2.79542C5.63676 2.49858 6.42545 2.42092 7.18635 2.57224C7.94725 2.72357 8.64618 3.09709 9.19476 3.64557C9.74334 4.19406 10.1169 4.89287 10.2683 5.65364C10.4196 6.41441 10.342 7.20297 10.0451 7.91959C9.74818 8.63622 9.24541 9.24874 8.60035 9.67968C7.95529 10.1106 7.19691 10.3406 6.4211 10.3406C5.38158 10.338 4.3854 9.92395 3.65035 9.18903C2.9153 8.45411 2.50118 7.45809 2.49855 6.41876Z" fill="#818590"/>
</svg>
