<svg width="16" height="16" viewBox="0 0 16 16" fill="none" xmlns="http://www.w3.org/2000/svg">
<path d="M9.99457 8.7503H6.00543C5.80706 8.7503 5.61681 8.67129 5.47654 8.53065C5.33627 8.39002 5.25747 8.19927 5.25747 8.00038C5.25747 7.80149 5.33627 7.61075 5.47654 7.47011C5.61681 7.32947 5.80706 7.25046 6.00543 7.25046H9.99457C10.1929 7.25046 10.3832 7.32947 10.5235 7.47011C10.6637 7.61075 10.7425 7.80149 10.7425 8.00038C10.7425 8.19927 10.6637 8.39002 10.5235 8.53065C10.3832 8.67129 10.1929 8.7503 9.99457 8.7503ZM5.00815 5.50065H6.25475C6.45312 5.50065 6.64337 5.42164 6.78364 5.281C6.92391 5.14036 7.00272 4.94962 7.00272 4.75073C7.00272 4.55184 6.92391 4.36109 6.78364 4.22045C6.64337 4.07982 6.45312 4.00081 6.25475 4.00081H5.17769C4.16208 3.98064 3.17503 4.33838 2.40704 5.00498C1.63904 5.67157 1.14455 6.59977 1.01901 7.61042C0.964574 8.16748 1.02736 8.72979 1.20331 9.26099C1.37926 9.79219 1.66446 10.2804 2.04046 10.6942C2.41645 11.1079 2.87488 11.4379 3.38608 11.6628C3.89729 11.8878 4.44989 12.0026 5.00815 12H6.25475C6.45312 12 6.64337 11.9209 6.78364 11.7803C6.92391 11.6397 7.00272 11.4489 7.00272 11.25C7.00272 11.0511 6.92391 10.8604 6.78364 10.7198C6.64337 10.5791 6.45312 10.5001 6.25475 10.5001H5.15774C4.52171 10.5139 3.90268 10.2936 3.4176 9.88094C2.93251 9.46827 2.61495 8.89177 2.52491 8.26035C2.49014 7.91206 2.52841 7.56033 2.63728 7.22775C2.74614 6.89517 2.92319 6.58911 3.15705 6.32921C3.39091 6.06931 3.67641 5.86134 3.9952 5.71865C4.31399 5.57595 4.65903 5.5017 5.00815 5.50065ZM14.981 7.61042C15.0354 8.16748 14.9726 8.72979 14.7967 9.26099C14.6207 9.79219 14.3355 10.2804 13.9595 10.6942C13.5835 11.1079 13.1251 11.4379 12.6139 11.6628C12.1027 11.8878 11.5501 12.0026 10.9919 12H9.74525C9.54688 12 9.35663 11.9209 9.21636 11.7803C9.07609 11.6397 8.99728 11.4489 8.99728 11.25C8.99728 11.0511 9.07609 10.8604 9.21636 10.7198C9.35663 10.5791 9.54688 10.5001 9.74525 10.5001H10.9919C11.341 10.4991 11.686 10.4248 12.0048 10.2821C12.3236 10.1394 12.6091 9.93145 12.8429 9.67155C13.0768 9.41166 13.2539 9.10559 13.3627 8.77301C13.4716 8.44043 13.5099 8.0887 13.4751 7.74041C13.3851 7.10899 13.0675 6.53249 12.5824 6.11983C12.0973 5.70716 11.4783 5.4869 10.8423 5.50065H9.74525C9.54688 5.50065 9.35663 5.42164 9.21636 5.281C9.07609 5.14036 8.99728 4.94962 8.99728 4.75073C8.99728 4.55184 9.07609 4.36109 9.21636 4.22045C9.35663 4.07982 9.54688 4.00081 9.74525 4.00081H10.8223C11.8379 3.98064 12.825 4.33838 13.593 5.00498C14.361 5.67157 14.8554 6.59977 14.981 7.61042Z" fill="#C06ECC"/>
</svg>
