<svg width="24" height="24" viewBox="0 0 24 24"  xmlns="http://www.w3.org/2000/svg">
<path d="M10.1748 3.99L19.7352 13.155L13.5067 19.695L3.96133 10.5V4.32L10.0998 3.945L10.1748 3.99ZM10.505 1.5H10.3849L3.27095 1.935C2.81823 1.96871 2.39456 2.17065 2.08342 2.50105C1.77229 2.83145 1.59625 3.26633 1.59 3.72L1.49995 10.89C1.49552 11.1111 1.53728 11.3307 1.62256 11.5347C1.70784 11.7387 1.83477 11.9228 1.99523 12.075L12.4111 22.065C12.7103 22.3398 13.1004 22.4947 13.5067 22.5C13.7493 22.4976 13.9888 22.4458 14.2108 22.3478C14.4327 22.2498 14.6323 22.1076 14.7974 21.93L22.0014 14.325C22.1594 14.1676 22.2847 13.9805 22.3701 13.7746C22.4556 13.5687 22.4996 13.3479 22.4996 13.125C22.4996 12.9021 22.4556 12.6813 22.3701 12.4754C22.2847 12.2695 22.1594 12.0824 22.0014 11.925L11.6006 1.935C11.3046 1.65512 10.9125 1.49942 10.505 1.5ZM8.25374 6.75C7.9569 6.75 7.66673 6.83798 7.41992 7.0028C7.1731 7.16762 6.98074 7.40189 6.86714 7.67598C6.75355 7.95007 6.72382 8.25167 6.78174 8.54264C6.83965 8.83361 6.98259 9.10088 7.19248 9.31066C7.40238 9.52044 7.6698 9.6633 7.96094 9.72118C8.25207 9.77906 8.55384 9.74935 8.82809 9.63582C9.10233 9.52229 9.33673 9.33003 9.50164 9.08336C9.66656 8.83668 9.75458 8.54667 9.75458 8.25C9.75458 7.85218 9.59646 7.47065 9.31499 7.18934C9.03353 6.90804 8.65179 6.75 8.25374 6.75Z" />
</svg>
