<svg width="24" height="24" viewBox="0 0 24 24"  xmlns="http://www.w3.org/2000/svg">
<path d="M19.7698 8.85C19.7325 8.47871 19.5582 8.13467 19.2808 7.88504C19.0034 7.63541 18.643 7.49813 18.2698 7.5H16.4998C16.4998 4.185 14.4748 1.5 11.9998 1.5C9.52483 1.5 7.49983 4.185 7.49983 7.5H5.74483C5.37168 7.49813 5.01123 7.63541 4.73387 7.88504C4.4565 8.13467 4.28214 8.47871 4.24483 8.85L2.99983 20.85C2.9788 21.0592 3.00199 21.2705 3.0679 21.4702C3.13381 21.6699 3.24096 21.8534 3.3824 22.009C3.52384 22.1646 3.69641 22.2887 3.88892 22.3733C4.08143 22.4579 4.28956 22.5011 4.49983 22.5H19.4998C19.7101 22.5011 19.9182 22.4579 20.1107 22.3733C20.3032 22.2887 20.4758 22.1646 20.6173 22.009C20.7587 21.8534 20.8659 21.6699 20.9318 21.4702C20.9977 21.2705 21.0209 21.0592 20.9998 20.85L19.7698 8.85ZM11.9998 3.405C13.4998 3.405 14.6998 5.52 14.6998 7.5H9.29983C9.29983 5.52 10.4998 3.405 11.9998 3.405ZM5.32483 20.25L6.40483 9.75H17.5948L18.6748 20.25H5.32483Z" />
</svg>
