<svg width="15" height="14" viewBox="0 0 15 14"  xmlns="http://www.w3.org/2000/svg">
<path d="M6.05582 10.5223C5.93194 10.5257 5.81127 10.4826 5.71745 10.4015C5.62362 10.3204 5.56339 10.2071 5.54857 10.0839V6.09815C5.54857 5.96601 5.60096 5.83929 5.69423 5.74586C5.78749 5.65242 5.91398 5.59993 6.04587 5.59993C6.17777 5.59993 6.30426 5.65242 6.39752 5.74586C6.49078 5.83929 6.54318 5.96601 6.54318 6.09815V10.0839C6.53082 10.2045 6.47407 10.3163 6.38398 10.3973C6.29389 10.4784 6.1769 10.5229 6.05582 10.5223ZM9.52701 10.0839V6.09815C9.52701 5.96601 9.47461 5.83929 9.38135 5.74586C9.28809 5.65242 9.1616 5.59993 9.0297 5.59993C8.89781 5.59993 8.77132 5.65242 8.67805 5.74586C8.58479 5.83929 8.5324 5.96601 8.5324 6.09815V10.0839C8.53238 10.1488 8.54531 10.2131 8.57042 10.273C8.59554 10.3329 8.63233 10.3872 8.67864 10.4327C8.72495 10.4782 8.77986 10.5139 8.84014 10.5379C8.90042 10.5618 8.96487 10.5734 9.0297 10.5721C9.15989 10.5721 9.2849 10.521 9.37788 10.4297C9.47086 10.3384 9.5244 10.2143 9.52701 10.0839ZM14.5001 3.9359C14.4974 4.13237 14.4177 4.3199 14.2781 4.4579C14.1385 4.59591 13.9502 4.67327 13.7541 4.67325H13.2568L11.6853 13.1927C11.6409 13.423 11.5167 13.6302 11.3348 13.7779C11.1529 13.9255 10.9248 14.0041 10.6907 13.9998H4.40477C4.17068 14.0041 3.94259 13.9255 3.76065 13.7779C3.57872 13.6302 3.4546 13.423 3.41016 13.1927L1.84862 4.62343H1.32148C1.21832 4.63551 1.11377 4.62557 1.01472 4.59428C0.915665 4.56299 0.824342 4.51105 0.746756 4.44187C0.669169 4.3727 0.607075 4.28785 0.564555 4.19292C0.522036 4.09798 0.500053 3.99511 0.500053 3.89106C0.500053 3.787 0.522036 3.68413 0.564555 3.5892C0.607075 3.49426 0.669169 3.40942 0.746756 3.34024C0.824342 3.27107 0.915665 3.21913 1.01472 3.18783C1.11377 3.15654 1.21832 3.14661 1.32148 3.15868H4.36498C4.42131 2.33616 4.77423 1.56222 5.35796 0.981083C5.9417 0.399945 6.71643 0.0512568 7.53779 0C8.3609 0.048925 9.13804 0.396583 9.72383 0.977947C10.3096 1.55931 10.664 2.33456 10.7205 3.15868H13.7044C13.8051 3.15047 13.9064 3.16312 14.002 3.19585C14.0977 3.22858 14.1855 3.28069 14.2602 3.34893C14.3348 3.41717 14.3947 3.50008 14.4359 3.59249C14.4772 3.68491 14.499 3.78484 14.5001 3.88608V3.9359ZM11.735 4.69318H3.37037L4.81256 12.4753H10.2929L11.735 4.69318ZM5.86684 3.15868H9.23857C9.19635 2.72209 9.00334 2.31395 8.69284 2.0047C8.38234 1.69545 7.97382 1.50448 7.53779 1.46475C7.1071 1.51101 6.70558 1.70486 6.40111 2.01351C6.09665 2.32217 5.90792 2.72669 5.86684 3.15868Z" fill="#999999"/>
</svg>
