<svg width="15" height="14" viewBox="0 0 15 14" fill="none" xmlns="http://www.w3.org/2000/svg">
<path d="M5.30846 14C4.69866 13.9785 4.09919 13.8365 3.54476 13.5824C2.99033 13.3283 2.49195 12.9671 2.07846 12.5197C1.65739 12.1356 1.31635 11.6725 1.07483 11.157C0.833317 10.6414 0.69606 10.0834 0.670908 9.51496C0.645756 8.94648 0.7332 8.37863 0.928244 7.84386C1.12329 7.30909 1.42211 6.81789 1.80763 6.39833L6.49213 1.84733C9.27073 -0.683228 11.7986 -0.253134 13.233 0.997141C13.891 1.50577 14.3578 2.22076 14.5581 3.02658C14.7583 3.83241 14.6802 4.68201 14.3364 5.43812C14.2864 5.52748 14.219 5.606 14.1382 5.66909C14.0574 5.73219 13.9648 5.7786 13.8658 5.8056C13.7668 5.83261 13.6634 5.83967 13.5616 5.82638C13.4599 5.81308 13.3618 5.7797 13.2731 5.72818C13.0889 5.61245 12.9568 5.43014 12.9045 5.21944C12.8521 5.00874 12.8836 4.78602 12.9922 4.59793C13.1331 4.17414 13.1362 3.71683 13.0011 3.29118C12.866 2.86554 12.5996 2.49326 12.2399 2.22741C11.0161 1.22719 9.2306 1.47725 7.53536 3.04759L2.88095 7.55858C1.55685 8.93889 2.43958 10.5592 3.18188 11.3794C3.92418 12.1996 5.52915 13.0698 6.88334 11.6695L10.2839 8.13871C10.411 8.01713 10.512 7.87115 10.581 7.70955C10.6499 7.54796 10.6854 7.37412 10.6851 7.1985C10.6677 6.89067 10.5395 6.59944 10.324 6.37832C10.217 6.26598 10.0874 6.17743 9.94374 6.11848C9.80006 6.05952 9.64551 6.03148 9.49022 6.0362C9.33492 6.04093 9.18237 6.0783 9.04256 6.14587C8.90274 6.21345 8.77882 6.3097 8.67889 6.42833L5.49905 9.72906C5.42952 9.80454 5.34503 9.86481 5.25092 9.90603C5.15681 9.94725 5.05515 9.96854 4.95236 9.96854C4.84957 9.96854 4.74791 9.94725 4.6538 9.90603C4.55969 9.86481 4.4752 9.80454 4.40567 9.72906C4.25498 9.57735 4.17044 9.37246 4.17044 9.15894C4.17044 8.94541 4.25498 8.74052 4.40567 8.58881L7.58551 5.28808C7.8293 5.01326 8.12885 4.79321 8.46433 4.6425C8.79981 4.49178 9.16357 4.41385 9.53153 4.41385C9.8995 4.41385 10.2633 4.49178 10.5987 4.6425C10.9342 4.79321 11.2338 5.01326 11.4776 5.28808C12.0002 5.82669 12.2882 6.54943 12.2788 7.29882C12.2694 8.04822 11.9634 8.76355 11.4274 9.28896L7.98675 12.8097C7.64745 13.1824 7.23414 13.4807 6.77308 13.6856C6.31201 13.8905 5.81325 13.9976 5.30846 14Z" fill="#C06ECC"/>
</svg>
