<svg width="24" height="24" viewBox="0 0 24 24"  xmlns="http://www.w3.org/2000/svg">
<path d="M12 11.9997C10.9592 12.0116 9.93832 11.7138 9.0671 11.1442C8.19589 10.5746 7.51365 9.75887 7.10708 8.80067C6.7005 7.84247 6.58793 6.78503 6.78368 5.76271C6.97943 4.74039 7.47465 3.79933 8.20643 3.05909C8.93821 2.31885 9.87351 1.81284 10.8935 1.60536C11.9135 1.39788 12.9722 1.49828 13.935 1.89382C14.8978 2.28935 15.7213 2.96217 16.3009 3.82678C16.8805 4.69139 17.1899 5.70877 17.19 6.74966C17.194 7.43516 17.0629 8.11473 16.8042 8.74956C16.5455 9.3844 16.1643 9.96206 15.6823 10.4496C15.2004 10.9371 14.6272 11.3249 13.9953 11.5909C13.3635 11.8568 12.6855 11.9957 12 11.9997ZM12 3.77966C11.4067 3.77966 10.8266 3.95561 10.3333 4.28525C9.83995 4.61489 9.45544 5.08343 9.22837 5.63161C9.00131 6.17979 8.9419 6.78299 9.05766 7.36493C9.17341 7.94687 9.45913 8.48142 9.87869 8.90098C10.2982 9.32054 10.8328 9.60626 11.4147 9.72202C11.9967 9.83777 12.5999 9.77836 13.1481 9.5513C13.6962 9.32424 14.1648 8.93972 14.4944 8.44637C14.8241 7.95302 15 7.373 15 6.77966C15 5.98401 14.6839 5.22095 14.1213 4.65834C13.5587 4.09573 12.7957 3.77966 12 3.77966ZM15.375 22.4997H8.62501C7.09959 22.4041 5.66812 21.7301 4.62278 20.615C3.57743 19.5 2.99702 18.0281 3.00001 16.4997C3.00395 15.8047 3.28178 15.1393 3.77321 14.6479C4.26464 14.1564 4.93003 13.8786 5.62501 13.8747H18.375C19.07 13.8786 19.7354 14.1564 20.2268 14.6479C20.7182 15.1393 20.9961 15.8047 21 16.4997C21.003 18.0281 20.4226 19.5 19.3772 20.615C18.3319 21.7301 16.9004 22.4041 15.375 22.4997ZM5.62501 16.1247C5.52556 16.1247 5.43017 16.1642 5.35985 16.2345C5.28952 16.3048 5.25001 16.4002 5.25001 16.4997C5.23845 17.4345 5.57928 18.3393 6.20467 19.0342C6.83007 19.7291 7.69417 20.163 8.62501 20.2497H15.375C16.3059 20.163 17.17 19.7291 17.7953 19.0342C18.4207 18.3393 18.7616 17.4345 18.75 16.4997C18.75 16.4002 18.7105 16.3048 18.6402 16.2345C18.5699 16.1642 18.4745 16.1247 18.375 16.1247H5.62501Z" />
</svg>
